<?xml version="1.0" standalone="no"?>
<!DOCTYPE svg PUBLIC "-//W3C//DTD SVG 20010904//EN"
 "http://www.w3.org/TR/2001/REC-SVG-20010904/DTD/svg10.dtd">
<svg version="1.0" xmlns="http://www.w3.org/2000/svg"
 width="1080.000000pt" height="1080.000000pt" viewBox="0 0 1080.000000 1080.000000"
 preserveAspectRatio="xMidYMid meet">
<metadata>
Created by potrace 1.14, written by Peter Selinger 2001-2017
</metadata>
<g transform="translate(0.000000,1080.000000) scale(0.100000,-0.100000)"
fill="#000000" stroke="none">
<path d="M5010 10783 c0 -11 -24 -13 -123 -14 -9 0 -15 -5 -11 -11 4 -6 -2 -6
-15 1 -11 7 -21 8 -21 4 0 -4 -21 -8 -48 -7 -26 0 -51 -2 -57 -5 -5 -3 -26 -6
-45 -7 -72 -4 -160 -17 -160 -24 0 -4 -20 -6 -45 -5 -25 1 -45 -2 -45 -7 0 -4
-18 -8 -40 -8 -22 0 -40 -3 -40 -7 0 -8 -28 -13 -85 -16 -16 -1 -33 -6 -36
-11 -6 -7 -27 -12 -96 -20 -13 -1 -26 -6 -30 -9 -3 -4 -17 -7 -29 -7 -13 0
-26 -5 -29 -11 -4 -6 -12 -8 -19 -6 -6 2 -22 0 -36 -6 -14 -5 -32 -11 -40 -13
-8 -1 -22 -4 -30 -7 -8 -2 -28 -7 -45 -12 -16 -4 -34 -11 -40 -15 -5 -4 -18
-6 -27 -5 -10 2 -20 -1 -24 -6 -3 -5 -14 -9 -25 -9 -10 0 -19 -4 -19 -9 0 -5
-9 -7 -20 -4 -12 3 -20 0 -20 -7 0 -7 -7 -10 -15 -6 -8 3 -21 -1 -29 -9 -7 -8
-16 -11 -20 -8 -3 3 -12 1 -20 -6 -8 -6 -18 -11 -22 -9 -5 1 -25 -5 -44 -14
-19 -8 -53 -21 -75 -28 -22 -7 -46 -17 -53 -23 -7 -5 -15 -7 -18 -4 -4 3 -13
-1 -21 -9 -8 -8 -19 -12 -24 -8 -5 3 -16 -2 -25 -10 -8 -9 -24 -16 -34 -16
-10 0 -22 -5 -25 -10 -4 -6 -11 -8 -16 -5 -5 4 -9 2 -9 -3 0 -6 -16 -13 -35
-16 -19 -4 -35 -11 -35 -16 0 -6 -4 -10 -10 -10 -16 0 -125 -52 -132 -64 -4
-6 -8 -8 -8 -3 0 4 -11 0 -24 -9 -14 -8 -29 -15 -33 -15 -4 0 -33 -14 -63 -32
-30 -17 -59 -32 -65 -32 -5 0 -18 -7 -28 -15 -10 -8 -19 -13 -20 -10 -1 2 -22
-9 -47 -26 -25 -17 -55 -34 -67 -38 -13 -4 -23 -12 -23 -17 0 -5 -7 -9 -15 -9
-8 0 -15 -5 -15 -11 0 -5 -4 -8 -9 -5 -5 3 -14 -1 -21 -9 -7 -8 -19 -15 -26
-15 -8 0 -14 -4 -14 -10 0 -5 -5 -10 -10 -10 -12 0 -94 -52 -98 -62 -2 -5 -8
-8 -12 -8 -8 0 -175 -112 -205 -137 -5 -5 -35 -26 -65 -48 -62 -45 -79 -58
-126 -99 -19 -15 -34 -26 -34 -23 0 3 -20 -14 -45 -39 -25 -24 -45 -41 -45
-38 0 4 -53 -42 -106 -93 -7 -7 -15 -13 -19 -13 -3 0 -23 -18 -44 -40 -21 -22
-43 -40 -50 -40 -7 0 -9 -4 -6 -10 3 -5 -2 -10 -11 -10 -10 0 -14 -3 -11 -6 7
-8 -31 -44 -45 -44 -5 0 -8 -3 -6 -7 2 -5 -15 -26 -36 -48 -22 -22 -36 -33
-31 -25 5 8 -11 -5 -35 -30 -25 -25 -44 -46 -44 -48 1 -1 -24 -29 -55 -62 -69
-73 -80 -86 -108 -124 -13 -16 -23 -26 -23 -22 0 5 -10 -4 -22 -20 -13 -16
-22 -30 -20 -32 2 -2 -7 -13 -21 -25 -13 -12 -39 -42 -57 -67 -19 -25 -39 -48
-45 -52 -5 -4 -6 -8 -2 -8 4 0 -2 -11 -15 -25 -30 -32 -37 -41 -78 -100 -19
-27 -43 -57 -52 -66 -10 -9 -15 -18 -13 -21 3 -3 -1 -11 -10 -18 -8 -7 -15
-19 -15 -27 0 -7 -7 -16 -15 -19 -8 -4 -15 -13 -15 -20 0 -8 -7 -17 -15 -20
-8 -4 -15 -12 -15 -19 0 -8 -6 -20 -13 -27 -18 -18 -42 -61 -39 -70 1 -5 -2
-8 -8 -8 -5 0 -17 -16 -26 -35 -9 -19 -21 -35 -26 -35 -5 0 -7 -4 -4 -8 3 -5
-4 -19 -15 -30 -11 -12 -17 -22 -13 -22 4 0 0 -8 -9 -18 -10 -10 -14 -22 -10
-25 3 -4 2 -7 -3 -7 -6 0 -23 -27 -39 -60 -15 -32 -33 -56 -38 -53 -6 3 -7 1
-3 -5 3 -6 2 -13 -4 -17 -6 -4 -8 -11 -5 -16 4 -5 2 -9 -3 -9 -9 0 -25 -37
-23 -52 1 -5 -4 -8 -9 -8 -6 0 -10 -9 -10 -20 0 -11 -4 -20 -9 -20 -8 0 -24
-37 -22 -52 1 -5 -4 -8 -10 -8 -5 0 -8 -4 -5 -9 3 -5 -1 -14 -9 -21 -8 -7 -15
-21 -15 -31 0 -11 -5 -19 -11 -19 -6 0 -8 -7 -5 -15 3 -9 -1 -18 -9 -21 -8 -4
-13 -10 -10 -14 3 -5 1 -11 -5 -15 -6 -4 -8 -10 -5 -15 3 -5 -2 -15 -10 -24
-8 -8 -15 -19 -14 -23 1 -4 -6 -26 -16 -48 -10 -22 -19 -42 -20 -45 -1 -3 -8
-18 -15 -35 -7 -16 -14 -32 -14 -35 -1 -3 -5 -11 -9 -17 -5 -7 -5 -17 -2 -23
3 -6 2 -10 -3 -10 -9 0 -19 -23 -28 -64 -3 -11 -11 -33 -19 -49 -8 -16 -12
-33 -9 -38 3 -5 1 -9 -3 -9 -7 0 -27 -55 -33 -95 -1 -5 -6 -18 -12 -28 -11
-21 -20 -54 -21 -79 -1 -10 -5 -18 -10 -18 -5 0 -7 -11 -5 -25 4 -18 1 -25
-10 -25 -8 0 -13 -2 -10 -6 3 -3 0 -25 -7 -49 -8 -24 -11 -46 -8 -49 4 -3 2
-6 -4 -6 -6 0 -10 -6 -10 -12 1 -24 -16 -98 -22 -98 -4 0 -6 -13 -5 -30 1 -16
-2 -30 -6 -30 -5 0 -9 -8 -8 -17 0 -10 -3 -31 -7 -48 -4 -16 -8 -37 -10 -45
-2 -8 -4 -15 -5 -15 -1 0 -4 -11 -5 -25 -11 -75 -18 -110 -24 -110 -3 0 -5
-20 -4 -45 0 -25 -2 -45 -7 -45 -4 0 -10 -30 -14 -67 -3 -38 -9 -84 -11 -103
-3 -19 -7 -64 -9 -99 -1 -36 -7 -66 -12 -68 -5 -2 -8 -39 -7 -83 1 -44 -2 -82
-8 -85 -5 -4 -6 -12 -2 -18 10 -17 15 -49 6 -44 -5 3 -8 -47 -8 -110 0 -63 -4
-117 -9 -120 -4 -3 -2 -9 5 -14 12 -8 12 -10 0 -18 -11 -7 -11 -9 0 -14 11 -4
11 -6 1 -6 -7 -1 -11 -5 -7 -10 9 -15 10 -105 2 -118 -5 -7 -5 -13 0 -13 4 0
8 -45 8 -100 -1 -55 2 -100 5 -100 4 0 8 -52 9 -116 1 -64 5 -122 8 -128 4 -6
8 -27 10 -46 5 -93 13 -161 17 -169 3 -5 7 -29 7 -55 1 -25 6 -46 10 -46 4 0
7 -18 5 -40 -2 -22 1 -40 5 -40 5 0 9 -18 9 -40 0 -22 4 -40 8 -40 4 0 8 -15
9 -32 0 -18 3 -40 6 -48 6 -18 19 -69 22 -90 8 -54 16 -94 22 -104 4 -6 8 -18
9 -26 1 -17 13 -68 21 -90 3 -8 7 -22 9 -30 4 -23 25 -91 40 -133 8 -21 12
-42 9 -47 -3 -4 -1 -10 4 -12 6 -1 12 -14 15 -28 2 -14 12 -45 21 -70 9 -25
18 -49 19 -55 2 -5 8 -23 14 -38 7 -16 12 -33 12 -38 0 -5 4 -17 9 -27 14 -25
24 -56 23 -64 -1 -5 3 -8 8 -8 6 0 10 -6 8 -12 -1 -7 6 -28 15 -45 10 -18 17
-34 17 -35 1 -15 14 -48 19 -48 4 0 8 -6 8 -12 2 -20 27 -82 37 -89 5 -4 5
-12 2 -18 -4 -6 0 -11 9 -11 9 0 14 -4 10 -10 -6 -10 41 -111 57 -121 5 -3 9
-9 8 -13 -3 -10 23 -70 33 -77 4 -3 9 -14 11 -23 1 -10 8 -21 15 -25 7 -5 12
-11 12 -15 -1 -7 32 -79 39 -86 5 -5 13 -18 52 -89 11 -20 27 -44 36 -53 8
-10 12 -18 8 -18 -4 0 6 -19 23 -42 17 -23 31 -50 31 -61 0 -10 4 -16 9 -13 8
5 25 -22 21 -33 -1 -2 2 -7 7 -10 4 -3 22 -26 38 -51 16 -25 32 -47 35 -50 3
-3 11 -17 19 -32 8 -16 18 -28 23 -28 4 0 8 -4 8 -10 0 -6 8 -19 18 -29 31
-35 42 -50 42 -58 0 -4 13 -22 30 -39 16 -18 26 -35 23 -38 -4 -3 -1 -6 5 -6
6 0 14 -9 17 -20 4 -11 11 -18 16 -15 5 4 9 0 9 -7 0 -7 14 -28 31 -46 16 -17
27 -32 23 -32 -4 0 6 -13 22 -29 16 -16 47 -51 69 -79 22 -28 48 -53 59 -55
10 -3 15 -10 12 -15 -7 -11 77 -102 94 -102 6 0 9 -4 6 -8 -6 -10 40 -62 54
-62 6 0 10 -7 10 -16 0 -8 4 -12 10 -9 5 3 10 -1 10 -10 0 -9 4 -14 8 -11 5 3
15 -6 22 -19 7 -14 20 -25 28 -25 9 0 13 -3 9 -6 -8 -8 18 -34 34 -34 7 0 10
-3 6 -6 -3 -3 13 -23 36 -43 23 -20 56 -50 73 -66 17 -17 59 -55 94 -85 34
-30 69 -61 76 -67 7 -7 15 -13 17 -13 3 0 21 -15 41 -32 48 -45 66 -60 66 -54
0 3 10 -5 23 -17 12 -12 35 -31 51 -42 16 -11 37 -28 48 -37 10 -10 22 -18 28
-18 6 0 10 -4 10 -9 0 -5 13 -14 30 -21 16 -7 28 -16 25 -20 -3 -4 9 -13 26
-21 18 -7 45 -25 62 -40 17 -16 33 -27 35 -25 2 3 15 -5 29 -17 13 -12 27 -20
30 -19 3 2 9 0 12 -5 10 -13 120 -83 131 -83 5 0 10 -5 10 -11 0 -5 5 -7 10
-4 5 3 10 1 10 -4 0 -6 4 -11 9 -11 10 0 119 -63 139 -80 7 -6 21 -12 32 -13
11 -1 20 -4 20 -8 0 -4 44 -28 98 -55 53 -26 100 -52 103 -57 4 -5 12 -6 18
-3 6 4 11 2 11 -3 0 -6 7 -11 15 -11 8 0 15 -5 15 -10 0 -6 4 -9 8 -8 12 4 82
-25 82 -33 0 -4 15 -11 33 -14 17 -4 41 -15 51 -24 11 -9 16 -11 13 -4 -5 8
-1 8 18 0 14 -7 25 -15 25 -19 0 -4 7 -5 15 -2 8 4 15 1 15 -5 0 -6 9 -11 20
-11 11 0 20 -4 20 -10 0 -5 7 -7 15 -4 8 4 15 1 15 -6 0 -6 4 -9 9 -6 5 3 21
-1 37 -8 16 -8 38 -16 49 -18 11 -2 23 -7 26 -11 3 -4 16 -9 27 -10 12 -1 22
-5 22 -10 0 -4 4 -6 9 -2 5 3 12 1 15 -4 4 -5 24 -12 46 -16 22 -4 40 -11 40
-16 0 -5 3 -8 8 -7 16 3 82 -15 82 -23 0 -5 11 -7 25 -5 13 3 27 0 30 -5 4 -5
15 -9 26 -9 10 0 19 -4 19 -9 0 -5 8 -8 18 -7 9 2 26 0 37 -5 51 -19 61 -22
83 -20 12 1 22 -2 22 -7 0 -5 15 -12 33 -15 17 -3 48 -8 67 -12 19 -4 44 -8
55 -10 11 -2 20 -4 20 -5 0 -1 16 -4 35 -7 19 -2 37 -8 40 -11 3 -4 20 -8 39
-10 19 -1 40 -7 47 -13 8 -7 14 -7 19 1 4 7 13 6 28 -2 12 -6 38 -12 57 -13
19 -1 42 -4 50 -7 8 -4 38 -9 65 -12 28 -4 73 -9 100 -13 28 -3 71 -6 98 -7
26 -1 47 -4 47 -9 0 -4 3 -6 8 -6 4 1 35 1 70 0 48 -1 61 -4 56 -14 -5 -8 -2
-8 9 2 9 7 17 9 17 5 0 -5 75 -9 168 -9 100 0 170 -4 174 -10 5 -6 8 -5 8 3 0
8 5 10 13 5 19 -12 37 -12 37 0 0 8 3 8 11 0 6 -6 22 -8 38 -4 14 3 101 6 193
6 93 0 168 3 168 6 0 3 21 7 48 8 26 2 53 3 60 4 6 0 12 3 12 6 0 3 26 7 58 8
82 3 143 9 182 19 19 4 44 8 55 8 11 1 25 4 30 7 6 3 27 5 48 5 20 -1 37 3 37
8 0 5 2 7 6 4 3 -3 22 -1 42 4 20 5 48 11 62 13 73 12 96 18 102 28 5 8 8 7 8
-3 0 -9 3 -11 8 -5 4 6 17 10 30 9 12 -1 22 3 22 7 0 5 10 8 23 8 12 -1 36 3
54 9 17 6 34 8 37 4 3 -3 6 0 6 7 0 7 6 11 13 8 6 -2 36 4 66 14 29 10 57 16
61 14 5 -3 11 -1 14 4 3 4 20 12 38 16 18 4 35 9 38 10 3 1 19 5 35 10 17 4
35 10 40 14 6 3 15 6 20 6 6 1 24 7 40 14 17 7 38 13 48 14 9 1 17 5 17 10 0
4 4 6 9 2 5 -3 12 -1 16 5 3 5 17 10 31 10 13 0 24 4 24 9 0 6 9 8 20 6 11 -2
20 -1 20 3 0 4 9 13 21 20 14 9 19 10 14 2 -5 -8 0 -8 16 1 13 7 26 14 29 14
39 9 60 19 60 27 0 6 9 8 20 5 11 -3 20 -2 20 2 0 4 29 18 65 32 36 13 65 27
65 31 0 3 14 9 30 13 17 4 30 11 30 17 0 6 6 8 14 5 8 -3 16 -1 18 4 2 6 10
11 18 13 22 4 133 59 149 74 7 7 18 11 25 9 6 -2 18 4 26 13 8 9 26 21 40 25
14 4 27 10 30 14 3 3 21 14 40 23 48 24 106 59 304 183 18 11 47 29 64 40 18
10 32 23 32 27 0 4 7 8 15 8 8 0 15 5 15 10 0 6 5 10 11 10 6 0 24 10 39 22
15 13 54 42 86 65 75 53 98 71 137 106 17 15 34 27 38 27 3 0 23 16 43 35 21
19 42 35 47 35 6 0 8 4 4 9 -3 5 4 12 15 16 11 3 28 17 39 31 10 13 21 24 25
24 7 0 47 36 171 156 57 56 106 99 109 96 3 -3 6 2 6 12 0 9 5 14 10 11 6 -3
10 -1 10 5 0 6 44 54 97 108 54 53 91 92 83 88 -14 -8 83 99 105 116 6 4 6 8
2 8 -5 0 5 12 21 28 16 15 38 41 48 57 10 17 27 36 36 43 10 7 16 18 13 23 -4
5 -2 9 4 9 5 0 23 19 39 43 17 23 39 53 51 66 12 13 21 28 21 32 0 4 10 19 23
32 27 28 46 56 53 80 4 9 10 17 14 17 4 0 13 14 20 30 7 17 16 30 19 30 4 0
15 16 24 35 9 19 22 35 27 35 6 0 8 5 5 10 -3 6 -1 10 4 10 6 0 11 6 11 13 0
8 9 24 20 37 11 13 20 29 20 37 0 7 3 13 8 13 4 0 12 10 18 23 24 49 50 92 61
102 6 5 13 19 15 30 2 11 6 22 9 25 3 3 25 41 48 85 24 44 48 86 53 93 6 6 7
12 3 12 -3 0 3 16 15 35 12 19 19 35 15 35 -3 0 1 7 9 16 9 8 16 24 16 35 0
10 4 19 9 19 5 0 19 29 32 65 12 36 26 65 31 65 4 0 4 7 1 17 -4 10 -2 14 4
10 7 -4 13 7 17 28 4 19 12 35 18 35 5 0 7 7 4 15 -3 9 1 18 8 21 8 3 13 13
11 22 -1 9 2 23 8 30 5 6 6 12 3 12 -4 0 -1 7 8 15 8 9 13 22 10 30 -4 8 -1
15 6 15 7 0 10 6 7 13 -3 7 3 24 13 37 10 13 15 32 12 44 -3 12 -1 17 3 13 8
-6 20 26 39 105 3 9 9 25 15 36 5 10 11 29 13 43 2 13 6 29 9 34 6 10 20 60
19 70 0 3 6 21 14 40 11 26 12 35 3 35 -9 0 -8 3 1 9 7 4 14 18 15 29 1 12 5
22 10 22 5 0 7 6 4 13 -2 6 1 28 8 47 7 19 10 41 8 48 -3 6 0 12 5 12 5 0 9 8
9 17 -1 22 13 84 22 98 4 6 6 26 6 45 0 19 3 37 7 40 4 3 8 22 10 43 1 20 5
37 8 37 3 0 5 17 4 38 -1 20 3 42 8 49 5 6 9 20 8 30 -1 10 -1 20 0 23 1 3 3
16 5 30 2 14 6 45 10 70 4 25 8 71 9 102 0 32 3 58 6 58 6 0 6 1 10 105 1 39
7 75 12 82 5 7 5 14 -2 18 -5 3 -10 11 -10 16 0 6 6 7 13 3 9 -6 9 -4 -1 8 -7
9 -9 19 -4 22 5 3 8 55 8 115 -1 68 3 111 9 111 6 0 3 5 -5 10 -8 5 -10 10 -4
10 8 0 9 11 4 35 -5 21 -4 35 2 35 5 0 7 4 4 8 -3 5 -7 73 -8 151 -2 79 -6
145 -11 148 -4 2 -2 13 4 25 6 11 7 18 2 15 -5 -3 -10 17 -10 46 -1 100 -6
168 -12 172 -4 2 -6 29 -5 59 0 31 -2 56 -6 56 -5 0 -8 10 -7 23 0 39 -15 152
-22 157 -3 3 -6 16 -6 30 1 14 -4 51 -11 83 -6 31 -9 57 -7 57 3 0 0 6 -6 13
-6 8 -8 17 -4 20 3 4 1 17 -5 30 -10 20 -20 69 -24 107 0 8 -4 20 -8 25 -4 6
-6 24 -5 41 0 20 -4 30 -10 27 -7 -2 -11 6 -10 18 1 13 -9 59 -21 103 -13 44
-21 83 -18 87 2 4 0 10 -6 14 -5 3 -10 15 -10 26 0 10 -4 19 -9 19 -6 0 -8 9
-6 20 2 11 -1 20 -7 20 -6 0 -8 9 -5 20 3 11 1 20 -4 20 -5 0 -9 11 -9 25 0
14 -4 25 -10 25 -5 0 -10 9 -10 19 0 11 -5 32 -12 48 -6 15 -12 30 -13 33 -1
3 -6 20 -10 38 -4 17 -12 32 -18 32 -6 0 -7 3 -4 7 4 3 2 12 -5 20 -6 7 -8 16
-5 19 3 4 0 13 -8 20 -8 8 -12 21 -9 29 4 8 1 15 -6 15 -6 0 -10 6 -8 12 3 7
-1 19 -9 26 -7 8 -11 18 -8 23 4 5 1 9 -5 9 -6 0 -9 4 -5 9 3 5 1 12 -5 16 -5
3 -10 15 -10 26 0 10 -4 19 -8 19 -5 0 -9 7 -10 15 -1 8 -3 22 -4 30 -1 8 -8
15 -15 15 -8 0 -12 4 -8 9 3 6 -4 26 -15 45 -11 20 -17 36 -14 36 7 0 -28 63
-41 72 -5 4 -6 8 -1 8 5 0 3 7 -4 15 -7 8 -9 15 -6 15 4 0 -3 10 -14 22 -11
12 -18 28 -16 35 3 7 -3 17 -12 22 -9 5 -16 13 -16 18 1 9 -18 56 -26 63 -4 3
-12 20 -19 38 -8 17 -16 32 -20 32 -4 0 -13 16 -20 35 -7 19 -17 35 -22 35 -5
0 -9 9 -9 20 0 11 -4 20 -10 20 -5 0 -10 7 -10 15 0 8 -4 15 -10 15 -5 0 -10
7 -10 15 0 8 -4 15 -10 15 -5 0 -10 9 -10 20 0 11 -4 20 -10 20 -5 0 -10 7
-10 15 0 8 -4 15 -10 15 -5 0 -10 7 -10 15 0 8 -4 15 -10 15 -5 0 -10 6 -10
14 0 8 -6 21 -12 28 -24 25 -78 106 -78 117 0 5 -8 16 -19 23 -10 7 -18 17
-19 21 0 5 -9 20 -21 33 -12 13 -21 29 -21 34 0 6 -7 13 -15 16 -8 4 -15 12
-15 18 0 7 -11 23 -25 36 -14 13 -23 26 -20 28 3 3 -10 19 -28 36 -17 17 -32
33 -31 36 1 7 -46 67 -83 106 -18 18 -33 37 -33 41 0 5 -13 21 -30 36 -16 16
-30 33 -30 38 0 6 -4 7 -10 4 -5 -3 -10 -1 -10 4 0 13 -21 39 -84 102 -26 27
-44 49 -40 50 5 0 -1 4 -13 9 -13 5 -23 17 -23 26 0 10 -3 15 -6 12 -7 -8
-134 120 -134 134 0 6 -3 9 -6 6 -3 -3 -38 27 -79 67 -40 40 -76 71 -78 69 -3
-3 -14 6 -25 20 -11 15 -22 26 -25 26 -5 0 -19 12 -101 88 -20 17 -38 32 -42
32 -4 0 -18 12 -32 28 -14 15 -27 26 -30 24 -2 -2 -20 10 -40 27 -78 65 -170
130 -176 124 -3 -4 -6 2 -6 11 0 11 -5 16 -13 13 -8 -3 -20 3 -28 14 -7 10
-19 19 -26 19 -7 0 -13 5 -13 10 0 6 -6 10 -13 10 -8 0 -22 9 -32 20 -10 11
-24 20 -32 20 -7 0 -13 4 -13 9 0 5 -13 14 -30 21 -16 7 -30 16 -30 21 0 5
-11 11 -25 15 -14 3 -25 10 -25 16 0 5 -4 6 -10 3 -5 -3 -10 -1 -10 4 0 6 -7
11 -15 11 -8 0 -15 5 -15 10 0 6 -5 10 -11 10 -6 0 -24 9 -40 21 -16 11 -29
17 -29 12 0 -4 -4 -3 -8 2 -14 21 -111 76 -122 70 -5 -3 -10 -1 -10 4 0 6 -7
11 -15 11 -8 0 -15 4 -15 8 0 5 -16 14 -35 22 -19 8 -35 17 -35 22 0 4 -7 8
-15 8 -8 0 -15 5 -15 10 0 6 -4 9 -8 8 -13 -5 -82 25 -82 35 0 5 -9 7 -20 4
-11 -3 -20 -1 -20 4 0 9 -69 43 -82 41 -5 -1 -8 3 -8 10 0 6 -3 8 -7 5 -3 -4
-13 -1 -21 5 -8 7 -21 13 -29 14 -8 1 -33 11 -56 22 -23 11 -60 26 -82 33 -22
8 -43 18 -46 22 -3 5 -10 9 -15 9 -5 0 -19 4 -32 9 -13 5 -27 9 -31 9 -5 0
-25 7 -45 15 -20 8 -39 16 -43 16 -5 0 -14 5 -20 11 -7 6 -20 8 -28 4 -8 -3
-15 -1 -15 4 0 6 -9 10 -19 10 -11 0 -22 4 -25 9 -3 5 -23 12 -43 16 -21 4
-42 10 -48 13 -5 4 -19 7 -30 7 -11 1 -19 6 -18 11 1 7 -8 9 -22 6 -14 -2 -25
0 -25 5 0 5 -6 10 -12 10 -22 1 -81 14 -90 19 -8 5 -24 9 -82 19 -16 3 -36 10
-45 14 -9 5 -24 7 -33 6 -10 -2 -18 0 -18 5 0 4 -10 7 -22 6 -13 -1 -25 2 -28
6 -3 4 -22 8 -43 10 -20 1 -37 5 -37 9 0 3 -11 5 -25 4 -14 -2 -25 0 -25 4 0
6 -21 10 -72 12 -10 0 -18 4 -18 9 0 4 -13 6 -30 4 -16 -3 -39 0 -51 6 -17 10
-20 9 -13 -2 6 -10 5 -11 -7 -1 -8 7 -34 13 -57 14 -23 2 -42 5 -42 8 0 4 -21
7 -48 8 -84 3 -186 12 -211 17 -13 3 -42 6 -65 7 -22 1 -47 7 -53 12 -9 6 -13
6 -13 -1 0 -6 -8 -9 -17 -7 -10 2 -18 4 -18 6 0 7 -697 3 -702 -4 -3 -5 -9 -3
-14 4 -6 10 -9 10 -9 2z"/>
</g>
</svg>
